<?xml version="1.0" encoding="utf-8"?>
<!-- Generator: Adobe Illustrator 25.2.3, SVG Export Plug-In . SVG Version: 6.00 Build 0)  -->
<svg version="1.1" id="Layer_1" xmlns="http://www.w3.org/2000/svg" xmlns:xlink="http://www.w3.org/1999/xlink" x="0px" y="0px"
	 viewBox="0 0 244.9 61" style="enable-background:new 0 0 244.9 61;" xml:space="preserve">
<style type="text/css">
	.st0{fill:#00ADD8;}
</style>
<path class="st0" d="M0,0v61h61V0H0z M41.6,45.2H21.2V15.6h19.6v4.8H26.5v7.3h13.6v4.8H26.5v8h15.1V45.2z M51.6,19.2
	c-0.5,0-1-0.1-1.4-0.4c-0.3-0.3-0.5-0.7-0.5-1.2c0-0.6,0.2-1.1,0.4-1.6l1.2-3.5c0.1-0.2,0.1-0.4,0.1-0.5c0-0.1-0.1-0.2-0.2-0.2
	c0,0,0,0,0,0c-0.4,0-0.8,0.5-1.2,1.3h-1c0.9-1.9,2.1-2.9,3.7-2.9c0.5,0,0.9,0.1,1.3,0.4c0.3,0.3,0.5,0.7,0.5,1.1
	c0,0.6-0.2,1.2-0.4,1.7l-1.2,3.2c-0.1,0.3-0.2,0.6-0.2,0.9c0,0.1,0,0.1,0.1,0.2c0.1,0,0.1,0.1,0.2,0.1c0.2,0,0.4-0.1,0.7-0.5
	c0.3-0.3,0.5-0.6,0.6-0.9h1C54.4,18.3,53.2,19.2,51.6,19.2z M55.4,7.4c-0.6,0.6-1.6,0.6-2.3,0c-0.3-0.3-0.5-0.7-0.5-1.1
	c0-0.4,0.2-0.8,0.5-1.1c0.6-0.6,1.6-0.6,2.2,0c0,0,0,0,0,0c0.3,0.3,0.5,0.7,0.5,1.1C55.9,6.7,55.7,7.1,55.4,7.4z"/>
<path class="st0" d="M80.4,27.6H92v2.8h-8.5v4.3h8.1v2.8h-8.1v4.8h9v2.8H80.4V27.6z"/>
<path class="st0" d="M96.1,27.6h5.9c0.8,0,1.6,0.1,2.4,0.2c0.7,0.1,1.4,0.4,2.1,0.8c0.6,0.4,1.1,0.9,1.5,1.6
	c0.4,0.8,0.6,1.6,0.5,2.4c0,0.9-0.2,1.9-0.6,2.7c-0.4,0.7-0.9,1.2-1.5,1.6c-0.7,0.4-1.5,0.7-2.2,0.8c-0.9,0.1-1.8,0.2-2.7,0.2h-2.2
	v7.3h-3.1V27.6z M101.1,35.3c0.4,0,0.9,0,1.4,0c0.5,0,0.9-0.1,1.3-0.3c0.9-0.3,1.5-1.2,1.4-2.1c0-0.5-0.1-0.9-0.3-1.3
	c-0.2-0.3-0.5-0.6-0.9-0.7c-0.4-0.2-0.8-0.3-1.2-0.3c-0.4-0.1-0.9-0.1-1.3-0.1h-2.2v5L101.1,35.3z"/>
<path class="st0" d="M111.4,27.6h3.1v17.6h-3.1V27.6z"/>
<path class="st0" d="M124.7,39.3h-6.4v-1.6h6.4V39.3z"/>
<path class="st0" d="M130.4,29.1c0,0.3-0.1,0.7-0.4,0.9c-0.5,0.4-1.2,0.4-1.6,0c-0.2-0.2-0.4-0.5-0.4-0.9c0-0.3,0.1-0.6,0.4-0.9
	c0.5-0.5,1.2-0.5,1.6,0C130.3,28.5,130.4,28.8,130.4,29.1z M130,45.3h-1.6V33.6h1.6V45.3z"/>
<path class="st0" d="M136,33.6c0,0.3,0.1,0.6,0.1,0.9s0,0.6,0,0.9l0,0c0.2-0.3,0.4-0.6,0.7-0.9c0.6-0.5,1.3-0.9,2.1-1.1
	c0.4-0.1,0.8-0.2,1.2-0.2c1.2-0.1,2.4,0.3,3.3,1.2c0.8,0.9,1.1,2.2,1.1,3.4v7.4h-1.6v-6.4c0.1-1-0.2-2.1-0.7-3
	c-0.6-0.7-1.5-1.1-2.5-1c-0.2,0-0.5,0.1-0.7,0.1c-0.4,0.1-0.9,0.3-1.2,0.5c-0.5,0.4-0.9,0.8-1.1,1.3c-0.4,0.8-0.5,1.6-0.5,2.5v6
	h-1.6v-9.1c0-0.3,0-0.7,0-1.2s-0.1-0.9-0.1-1.4H136z"/>
<path class="st0" d="M154.5,35.1h-3.4V42c0,0.4,0,0.7,0.1,1c0.1,0.2,0.2,0.5,0.4,0.6c0.1,0.2,0.3,0.3,0.5,0.3
	c0.2,0.1,0.5,0.1,0.7,0.1c0.3,0,0.6,0,0.9-0.1c0.3-0.1,0.6-0.2,0.8-0.3l0.1,1.5c-0.7,0.3-1.5,0.4-2.2,0.4c-0.3,0-0.7,0-1-0.1
	c-0.3-0.1-0.7-0.2-0.9-0.5c-0.3-0.3-0.5-0.6-0.7-1c-0.2-0.5-0.3-1-0.3-1.6v-7.4H147v-1.5h2.5v-3.3h1.6v3.3h3.4L154.5,35.1z"/>
<path class="st0" d="M158.1,39.9c0,0.6,0.2,1.1,0.4,1.7c0.2,0.5,0.5,0.9,0.9,1.3c0.4,0.4,0.8,0.7,1.3,0.9c0.5,0.2,1.1,0.3,1.6,0.3
	c0.8,0,1.6-0.2,2.3-0.6c0.6-0.4,1.1-0.8,1.5-1.4l1.3,1c-0.6,0.8-1.4,1.5-2.3,1.9c-0.9,0.4-1.8,0.6-2.7,0.6c-0.8,0-1.6-0.1-2.4-0.5
	c-0.7-0.3-1.4-0.7-1.9-1.3c-0.5-0.6-1-1.2-1.3-1.9c-0.6-1.6-0.6-3.3,0-4.9c0.3-0.7,0.7-1.4,1.2-1.9c0.5-0.5,1.2-1,1.9-1.3
	c0.7-0.3,1.5-0.5,2.3-0.5c0.8,0,1.6,0.2,2.4,0.5c0.7,0.3,1.3,0.7,1.7,1.2c0.5,0.5,0.8,1.2,1.1,1.8c0.3,0.7,0.4,1.5,0.4,2.2v0.8
	L158.1,39.9z M166.1,38.5c0-1-0.3-2-1-2.7c-0.7-0.7-1.8-1.1-2.8-1c-0.5,0-1.1,0.1-1.5,0.3c-0.5,0.2-0.9,0.5-1.3,0.8
	c-0.4,0.3-0.7,0.7-0.9,1.2c-0.2,0.4-0.3,0.9-0.3,1.4L166.1,38.5z"/>
<path class="st0" d="M171.4,37.2c0-0.5,0-1,0-1.6s0-1.2-0.1-2.1h1.6v2.2h0c0.1-0.3,0.3-0.6,0.5-0.9c0.2-0.3,0.5-0.6,0.8-0.8
	c0.3-0.2,0.7-0.4,1.1-0.6c0.4-0.2,0.9-0.2,1.4-0.2c0.4,0,0.8,0,1.2,0.2l-0.3,1.6c-0.3-0.1-0.6-0.1-0.9-0.1c-0.6,0-1.1,0.1-1.6,0.4
	c-0.4,0.2-0.8,0.5-1.1,0.9c-0.3,0.4-0.5,0.8-0.7,1.2c-0.1,0.4-0.2,0.8-0.2,1.2v6.6h-1.7V37.2z"/>
<path class="st0" d="M187.8,38.1v-0.3c0-2-1-3-3-3c-1.3,0-2.6,0.5-3.6,1.4l-1-1.2c1.3-1.2,3.1-1.8,4.9-1.7c0.6,0,1.1,0.1,1.6,0.2
	c0.5,0.2,1,0.4,1.4,0.8c0.4,0.4,0.7,0.8,0.9,1.3c0.2,0.6,0.4,1.2,0.3,1.8v5.2c0,0.5,0,0.9,0.1,1.4c0,0.5,0.1,0.9,0.1,1.2H188
	c-0.1-0.3-0.1-0.6-0.1-0.9c0-0.3,0-0.7,0-1l0,0c-0.4,0.7-1,1.3-1.7,1.7c-0.7,0.4-1.6,0.5-2.4,0.5c-0.5,0-1-0.1-1.5-0.2
	c-0.5-0.1-0.9-0.3-1.3-0.6c-0.4-0.3-0.7-0.7-0.9-1.1c-0.2-0.5-0.3-1-0.3-1.5c0-0.8,0.2-1.6,0.7-2.2c0.5-0.5,1.1-1,1.8-1.2
	c0.8-0.3,1.6-0.4,2.4-0.5c0.8-0.1,1.6-0.1,2.3-0.1L187.8,38.1z M186.9,39.5c-0.4,0-0.9,0-1.6,0.1c-0.6,0-1.2,0.1-1.8,0.3
	c-0.5,0.1-1,0.4-1.5,0.7c-0.4,0.3-0.6,0.8-0.6,1.4c0,0.3,0.1,0.7,0.2,1c0.2,0.3,0.4,0.5,0.6,0.7c0.3,0.2,0.6,0.3,0.9,0.4
	c0.3,0.1,0.7,0.1,1,0.1c0.5,0,1.1-0.1,1.6-0.3c0.4-0.2,0.8-0.5,1.1-0.8c0.3-0.3,0.5-0.8,0.7-1.2c0.1-0.5,0.2-1,0.2-1.5v-0.8
	L186.9,39.5z"/>
<path class="st0" d="M202.1,36.3c-0.3-0.4-0.7-0.8-1.2-1.1c-0.5-0.3-1.1-0.5-1.7-0.5c-0.6,0-1.3,0.1-1.8,0.3c-0.5,0.2-1,0.6-1.4,1
	c-0.4,0.4-0.7,0.9-0.9,1.5c-0.4,1.2-0.4,2.5,0,3.7c0.2,0.5,0.5,1.1,0.9,1.5c0.4,0.4,0.9,0.8,1.4,1c0.6,0.2,1.2,0.4,1.8,0.3
	c0.6,0,1.2-0.1,1.7-0.5c0.5-0.3,0.9-0.6,1.2-1.1l1.4,1c-0.5,0.6-1.2,1.2-2,1.5c-0.7,0.3-1.5,0.5-2.3,0.5c-0.9,0-1.7-0.1-2.6-0.4
	c-0.8-0.3-1.4-0.7-2-1.3c-0.6-0.6-1-1.3-1.2-2c-0.6-1.6-0.6-3.3,0-4.9c0.3-0.7,0.7-1.4,1.2-2c0.6-0.6,1.3-1,2-1.3
	c0.8-0.3,1.7-0.5,2.6-0.4c0.8,0,1.6,0.2,2.3,0.5c0.8,0.3,1.5,0.9,2,1.5L202.1,36.3z"/>
<path class="st0" d="M213,35.1h-3.4V42c0,0.4,0,0.7,0.1,1c0.1,0.2,0.2,0.5,0.4,0.6c0.1,0.2,0.3,0.3,0.5,0.3c0.2,0.1,0.5,0.1,0.7,0.1
	c0.3,0,0.6,0,0.9-0.1c0.3-0.1,0.6-0.2,0.8-0.3l0.1,1.5c-0.7,0.3-1.5,0.4-2.2,0.4c-0.3,0-0.7,0-1-0.1c-0.3-0.1-0.7-0.2-0.9-0.5
	c-0.3-0.3-0.5-0.6-0.7-1c-0.2-0.5-0.3-1-0.3-1.6v-7.4h-2.5v-1.5h2.5v-3.3h1.6v3.3h3.4V35.1z"/>
<path class="st0" d="M218,29.1c0,0.3-0.1,0.6-0.4,0.9c-0.2,0.2-0.5,0.3-0.8,0.3c-0.3,0-0.6-0.1-0.8-0.3c-0.2-0.2-0.4-0.5-0.4-0.9
	c0-0.3,0.1-0.6,0.4-0.9c0.2-0.2,0.5-0.3,0.8-0.3c0.3,0,0.6,0.1,0.8,0.3C217.9,28.5,218,28.8,218,29.1z M217.6,45.3H216V33.6h1.6
	L217.6,45.3z"/>
<path class="st0" d="M227.1,45.3h-1.9l-4.7-11.7h1.9l3.7,9.8h0.1l3.7-9.8h1.9L227.1,45.3z"/>
<path class="st0" d="M235.2,39.9c0,0.6,0.2,1.1,0.4,1.7c0.2,0.5,0.5,0.9,0.9,1.3c0.4,0.4,0.8,0.7,1.3,0.9c0.5,0.2,1.1,0.3,1.6,0.3
	c0.8,0,1.6-0.2,2.3-0.6c0.6-0.4,1.1-0.8,1.4-1.4l1.3,1c-0.6,0.8-1.4,1.5-2.3,1.9c-0.8,0.4-1.8,0.6-2.7,0.6c-0.8,0-1.6-0.1-2.4-0.5
	c-0.7-0.3-1.4-0.7-1.9-1.3c-0.5-0.6-0.9-1.2-1.2-1.9c-0.3-0.8-0.5-1.6-0.5-2.5c0-0.8,0.1-1.7,0.4-2.4c0.3-0.7,0.7-1.4,1.2-1.9
	c0.5-0.5,1.2-1,1.9-1.3c0.7-0.3,1.5-0.5,2.3-0.5c0.8,0,1.6,0.1,2.4,0.5c0.6,0.3,1.2,0.7,1.7,1.2c0.5,0.5,0.9,1.2,1.1,1.8
	c0.2,0.7,0.4,1.5,0.4,2.2v0.8L235.2,39.9z M243.1,38.5c0-1-0.3-2-1-2.7c-0.8-0.7-1.8-1.1-2.8-1c-0.5,0-1.1,0.1-1.6,0.3
	c-0.5,0.2-0.9,0.5-1.3,0.8c-0.4,0.3-0.7,0.7-0.9,1.2c-0.2,0.4-0.3,0.9-0.3,1.4L243.1,38.5z"/>
</svg>
