<svg xmlns="http://www.w3.org/2000/svg" xmlns:xlink="http://www.w3.org/1999/xlink" width="375" height="65" viewBox="0 0 375 65">
  <defs>
    <clipPath id="clip-path">
      <rect id="Rectangle_21" data-name="Rectangle 21" width="375" height="65" transform="translate(0 602)" fill="#fff" stroke="#707070" stroke-width="1"/>
    </clipPath>
    <linearGradient id="linear-gradient" x1="0.5" x2="0.5" y2="1" gradientUnits="objectBoundingBox">
      <stop offset="0" stop-color="#455e37"/>
      <stop offset="1" stop-color="#222e1a"/>
    </linearGradient>
  </defs>
  <g id="Mask_Group_1" data-name="Mask Group 1" transform="translate(0 -602)" clip-path="url(#clip-path)">
    <path id="Union_4" data-name="Union 4" d="M10.741,108.222V40.862L0,36.3s-.2-9.117,2.836-12.156S7.5,20.7,7.5,20.7a19.216,19.216,0,0,0-2.836,8.1c-.2,4.052,0,7.5,0,7.5s4.863-3.647,5.47-7.5S8.917,18.064,8.917,18.064s4.052,4.255,4.457,7.9c.063.567.106,1.207.135,1.884,1.644-.26,3.992-.624,6.979-1.069.048-.271.107-.544.18-.814A20.87,20.87,0,0,1,22.9,20.7a11.44,11.44,0,0,0-.211,4.514,7.922,7.922,0,0,1,1.73-3.2,16.983,16.983,0,0,1,4.016-3.171,42.107,42.107,0,0,0-1.078-4.224A18.256,18.256,0,0,1,31,22.319a26.424,26.424,0,0,1,.242,2.914l.589-.082a41.687,41.687,0,0,0-1.337-9.214s4.052,4.255,4.457,7.9c.03.275.056.568.078.874l.851-.115a8.662,8.662,0,0,1,1.907-3.8c3.039-3.039,4.66-3.444,4.66-3.444a20.566,20.566,0,0,0-2.679,6.721l2.5-.328a20.859,20.859,0,0,1,2.2-5.177,10.949,10.949,0,0,0-.116,4.907l.845-.109a43.671,43.671,0,0,0-1.337-8.647s4.052,4.255,4.457,7.9q.018.168.035.345l1.819-.228c.071-.253.129-.5.173-.725.608-3.242-1.418-9.522-1.418-9.522a18.256,18.256,0,0,1,3.647,7.7c.1.678.169,1.435.211,2.226.98-.12,1.981-.242,2.989-.363a20.776,20.776,0,0,1,2.067-4.7,11.482,11.482,0,0,0-.218,4.477l.781-.093a10.063,10.063,0,0,1,2.173-4.891,22.818,22.818,0,0,1,2.6-2.277c-.417-1.856-.881-3.295-.881-3.295a19.721,19.721,0,0,1,1.8,2.679,4.815,4.815,0,0,1,1.141-.552s-.318.489-.741,1.3a14.317,14.317,0,0,1,1.45,4.275c.086.575.148,1.206.19,1.867l1.829-.206c.261-3.931-1.31-9.866-1.31-9.866s4.052,4.255,4.457,7.9c.054.488.094,1.03.122,1.6l1.26-.138a8.029,8.029,0,0,1,1.759-3.289c3.039-3.039,4.66-3.444,4.66-3.444a20.885,20.885,0,0,0-2.6,6.323l1.911-.2c.05-.284.111-.57.187-.854A20.865,20.865,0,0,1,80.639,13.4a10.45,10.45,0,0,0,0,5.268c.065.178.129.373.193.583l.834-.086a44.476,44.476,0,0,0-1.332-8.4s4.052,4.255,4.457,7.9c.006.059.013.119.019.179l1.144-.114a11.7,11.7,0,0,0,.559-1.888c.608-3.242-1.418-9.522-1.418-9.522a18.256,18.256,0,0,1,3.647,7.7A28.3,28.3,0,0,1,89,18.438c1.071-.1,2.155-.208,3.241-.311A20.778,20.778,0,0,1,94.315,13.4a11.4,11.4,0,0,0-.2,4.546l1.406-.131c.514-2.119,1.318-4.2,2.569-5.331.615-.554,1.172-1.012,1.671-1.392-.44-2.079-.985-3.77-.985-3.77a20.047,20.047,0,0,1,2,3.047,7.036,7.036,0,0,1,2.149-1.081,20.716,20.716,0,0,0-1.477,2.465,13.262,13.262,0,0,1,.975,3.267c.1.657.165,1.389.208,2.154l2.6-.225c.57-3.9-.753-10.218-.753-10.218s3.824,4.461,4.038,8.124c.032.548.042,1.164.037,1.813q3.469-.288,7.01-.565c.065-.289.144-.58.237-.867a20.877,20.877,0,0,1,2.5-5.144,11.437,11.437,0,0,0-.447,4.5,7.921,7.921,0,0,1,1.9-3.1,17,17,0,0,1,4.176-2.956,42.046,42.046,0,0,0-.856-4.275,18.258,18.258,0,0,1,3.239,7.879,27.279,27.279,0,0,1,.084,3.168l.577-.04a40.7,40.7,0,0,0-.833-9.528s3.824,4.461,4.038,8.124c.021.368.033.765.037,1.183l.746-.05a9.087,9.087,0,0,1,2.209-4.02C136.356,8.1,138,7.783,138,7.783a20.208,20.208,0,0,0-3.11,6.961l2.464-.153q.049-.173.1-.345a20.859,20.859,0,0,1,2.5-5.144,10.451,10.451,0,0,0-.276,5.26l.026.086.7-.041a42.006,42.006,0,0,0-.859-9.181s3.824,4.461,4.038,8.124c.016.275.027.568.033.873l1.6-.089a10.038,10.038,0,0,0,.42-1.286c.777-3.205-.918-9.583-.918-9.583a18.255,18.255,0,0,1,3.239,7.879,26.139,26.139,0,0,1,.09,2.839c.93-.049,1.849-.1,2.782-.142l.035-.109a20.878,20.878,0,0,1,2.5-5.144,10.615,10.615,0,0,0-.31,5.144l.462-.022c.513-2.171,1.324-4.33,2.606-5.485a22.835,22.835,0,0,1,2.719-2.137c-.32-1.875-.708-3.337-.708-3.337a19.74,19.74,0,0,1,1.654,2.77,4.811,4.811,0,0,1,1.168-.492s-.343.472-.808,1.257a14.315,14.315,0,0,1,1.225,4.345,25.678,25.678,0,0,1,.092,2.727l1.691-.068.007-.03c.809-3.813-.652-10.787-.652-10.787s3.824,4.461,4.038,8.124c.044.756.047,1.639.024,2.564l.948-.034a9.3,9.3,0,0,1,2.26-4.187c3.194-2.876,4.834-3.2,4.834-3.2A19.94,19.94,0,0,0,171.459,13l1.954-.06a10.777,10.777,0,0,1,.427-1.958,20.872,20.872,0,0,1,2.5-5.144,10.449,10.449,0,0,0-.275,5.26c.147.482.287,1.092.418,1.754l.514-.014a40.24,40.24,0,0,0-.822-9.647s3.824,4.461,4.038,8.124c.026.443.037.929.038,1.442l.11,0a22.414,22.414,0,0,1,1.856-4.612A33.437,33.437,0,0,0,181.11,0a19.809,19.809,0,0,1,2.872,5.918q.129-.106.263-.2c3.521-2.465,5.187-2.583,5.187-2.583a19.212,19.212,0,0,0-4.2,7.488c-.16.7-.3,1.385-.433,2.037.813-.015,1.635-.03,2.449-.043.068-.308.15-.616.249-.922A20.861,20.861,0,0,1,190,6.552a10.447,10.447,0,0,0-.276,5.26c.07.229.138.487.2.766l.239,0a6.148,6.148,0,0,0,.453-1c1.267-3.685.667-10.786.667-10.786s3.252,4.894,3.017,8.556c-.059.93-.2,2.044-.388,3.189l.947-.008a12.777,12.777,0,0,0,.822-2.225c.777-3.205-.918-9.583-.918-9.583a18.256,18.256,0,0,1,3.239,7.879,30.225,30.225,0,0,1,.061,3.909q1.379-.007,2.759-.009a10.811,10.811,0,0,1,.66-1.884,20.864,20.864,0,0,1,3.11-4.8,11.436,11.436,0,0,0-.991,4.408,7.92,7.92,0,0,1,2.259-2.848,17,17,0,0,1,4.506-2.426A42.063,42.063,0,0,0,210.041.6,18.255,18.255,0,0,1,212.3,8.813a29.54,29.54,0,0,1-.391,3.728l.536.005c1-3.812.464-10.106.464-10.106s3.251,4.894,3.018,8.556c-.031.487-.086,1.025-.157,1.592l.629.009a9.6,9.6,0,0,1,2.849-4.1c3.52-2.465,5.187-2.583,5.187-2.583a19.994,19.994,0,0,0-4,6.751l2.483.05q.092-.227.2-.451a20.87,20.87,0,0,1,3.109-4.8,10.447,10.447,0,0,0-.915,5.187c.007.039.013.078.02.118l.7.016a42.011,42.011,0,0,0,.267-9.219s3.251,4.893,3.017,8.555c-.015.238-.036.487-.061.746l1.688.047a9.564,9.564,0,0,0,.475-1.04c1.161-3.087.257-9.624.257-9.624a18.258,18.258,0,0,1,2.255,8.215A25,25,0,0,1,233.7,13c.973.03,1.956.062,2.927.1a20.834,20.834,0,0,1,2.97-4.506,11.24,11.24,0,0,0-.984,4.575l.7.025a10.32,10.32,0,0,1,3.063-4.624,22.842,22.842,0,0,1,2.96-1.79c-.089-1.9-.3-3.4-.3-3.4a19.728,19.728,0,0,1,1.3,2.951,4.812,4.812,0,0,1,1.219-.346s-.4.426-.955,1.149a14.319,14.319,0,0,1,.686,4.461c-.015.591-.066,1.237-.141,1.907l1.841.08c.94-3.825.423-9.946.423-9.946s3.252,4.894,3.017,8.556c-.03.473-.083.993-.151,1.541l1.3.062a7.928,7.928,0,0,1,2.262-2.853c3.521-2.465,5.187-2.583,5.187-2.583a21,21,0,0,0-3.6,5.628l1.925.1q.121-.317.265-.628a20.874,20.874,0,0,1,3.109-4.8,10.448,10.448,0,0,0-.914,5.188c.021.119.041.245.059.377l.9.05a45.229,45.229,0,0,0,.113-8.261s3.183,4.791,3.024,8.439l1.3.076a10.762,10.762,0,0,0,.7-1.456c1.161-3.087.257-9.624.257-9.624a18.258,18.258,0,0,1,2.254,8.215,26.825,26.825,0,0,1-.286,3.041c1.136.069,2.273.14,3.4.212a20.644,20.644,0,0,1,2.652-3.882,11.886,11.886,0,0,0-.989,3.989q3.108.2,6.181.415c1.157-3.09.254-9.616.254-9.616a18.258,18.258,0,0,1,2.254,8.215c-.013.491-.05,1.02-.1,1.569C348.543,20.2,399.738,28.3,399.738,28.3v79.927ZM26.3,25.93l2.052-.292a10.6,10.6,0,0,0,.417-1.5,14.246,14.246,0,0,0-.223-4.674A18.974,18.974,0,0,0,26.3,25.93Zm36.116-4.661,1.233-.142q.039-.168.069-.328a13.122,13.122,0,0,0-.133-4.139A15.545,15.545,0,0,0,62.419,21.269Zm37.244-4.032q-.011.1-.021.207l.421-.038q.076-.289.127-.557a9.471,9.471,0,0,0,.08-2.328A12.888,12.888,0,0,0,99.663,17.237Zm21.734-1.57,2.008-.146a11.2,11.2,0,0,0,.579-1.675,14.244,14.244,0,0,0,.022-4.68A18.771,18.771,0,0,0,121.4,15.667Zm36.31-2.691q-.028.275-.054.546l1.043-.045a9.728,9.728,0,0,0,.363-1.14,13.108,13.108,0,0,0,.084-4.141A15.239,15.239,0,0,0,157.707,12.975Zm85.685.366,1.229.05q.089-.2.161-.392a13.106,13.106,0,0,0,.588-4.1A15.415,15.415,0,0,0,243.393,13.341ZM206.85,12.276l-.051.226,1.784.01a13.373,13.373,0,0,0,1.2-2.291,14.248,14.248,0,0,0,.592-4.642A18.036,18.036,0,0,0,206.85,12.276Z" transform="translate(-12.369 602.313)" fill="url(#linear-gradient)"/>
  </g>
</svg>
