<svg xmlns="http://www.w3.org/2000/svg" xmlns:xlink="http://www.w3.org/1999/xlink" width="1280" height="508" viewBox="0 0 1280 508">
  <defs>
    <clipPath id="clip-path">
      <rect id="Rectangle_22" data-name="Rectangle 22" width="1280" height="508" transform="translate(0 292)" fill="#fff" stroke="#707070" stroke-width="1"/>
    </clipPath>
    <linearGradient id="linear-gradient" x1="0.5" x2="0.5" y2="1" gradientUnits="objectBoundingBox">
      <stop offset="0" stop-color="#455e37"/>
      <stop offset="1" stop-color="#222e1a"/>
    </linearGradient>
    <radialGradient id="radial-gradient" cx="0.5" cy="0.5" r="0.5" gradientUnits="objectBoundingBox">
      <stop offset="0"/>
      <stop offset="1" stop-opacity="0"/>
    </radialGradient>
    <clipPath id="clip-path-2">
      <rect id="Rectangle_11" data-name="Rectangle 11" width="832.695" height="410.88" fill="none"/>
    </clipPath>
    <linearGradient id="linear-gradient-2" x1="0.342" y1="0.171" x2="0.43" y2="0.867" gradientUnits="objectBoundingBox">
      <stop offset="0" stop-color="#84dcf2"/>
      <stop offset="0.406" stop-color="#01a8d1"/>
      <stop offset="1" stop-color="#06748e"/>
    </linearGradient>
    <linearGradient id="linear-gradient-3" x1="0.5" x2="0.65" y2="1" gradientUnits="objectBoundingBox">
      <stop offset="0" stop-color="#fff"/>
      <stop offset="1" stop-color="#b19f9f"/>
    </linearGradient>
    <linearGradient id="linear-gradient-4" x1="0.159" y1="-0.049" x2="0.342" y2="0.961" gradientUnits="objectBoundingBox">
      <stop offset="0" stop-color="#fff"/>
      <stop offset="1" stop-color="#c2abab"/>
    </linearGradient>
    <radialGradient id="radial-gradient-2" cx="0.5" cy="0.5" r="0.5" gradientUnits="objectBoundingBox">
      <stop offset="0" stop-color="#1a1818"/>
      <stop offset="1" stop-color="#363333"/>
    </radialGradient>
    <radialGradient id="radial-gradient-3" cx="0.5" cy="0.5" r="0.5" gradientUnits="objectBoundingBox">
      <stop offset="0" stop-color="#818386"/>
      <stop offset="1" stop-color="#414243"/>
    </radialGradient>
    <linearGradient id="linear-gradient-5" x1="-0.397" y1="0.299" x2="1.559" y2="0.823" gradientUnits="objectBoundingBox">
      <stop offset="0" stop-color="#e0e1e3"/>
      <stop offset="1" stop-color="#707172"/>
    </linearGradient>
  </defs>
  <g id="Mask_Group_2" data-name="Mask Group 2" transform="translate(0 -292)" clip-path="url(#clip-path)">
    <g id="Group_36" data-name="Group 36">
      <path id="Union_2" data-name="Union 2" d="M1460.343,356.107V134.456L1425.01,119.44s-.667-30,9.333-40,15.333-11.334,15.333-11.334-8.666,13.334-9.333,26.667,0,24.666,0,24.666,16-12,18-24.666-4-35.334-4-35.334,13.333,14,14.667,26c.207,1.865.349,3.971.443,6.2,5.409-.856,13.135-2.054,22.965-3.519.158-.893.354-1.789.591-2.679a68.674,68.674,0,0,1,7.333-17.333s-2.116,7.936-.693,14.853c1.345-4.238,3.183-8.009,5.693-10.519,6.332-6.333,10.794-9.19,13.215-10.434a138.532,138.532,0,0,0-3.548-13.9s10,12,12,25.333a86.944,86.944,0,0,1,.795,9.588l1.939-.269c.227-12.838-4.4-30.318-4.4-30.318s13.333,14,14.667,26c.1.906.185,1.868.257,2.875l2.8-.38c1.381-5.032,3.382-9.6,6.277-12.495,10-10,15.333-11.333,15.333-11.333s-6.8,10.461-8.816,22.116c2.7-.357,5.433-.716,8.23-1.081a68.634,68.634,0,0,1,7.253-17.035s-2.391,8.967-.381,16.145l2.781-.358c-.2-12.6-4.4-28.454-4.4-28.454s13.333,14,14.666,26q.061.553.115,1.135c1.979-.248,3.966-.5,5.984-.749.234-.833.426-1.631.568-2.386,2-10.667-4.667-31.333-4.667-31.333s10,12,12,25.333c.334,2.23.557,4.721.7,7.323,3.226-.4,6.518-.8,9.834-1.2a68.367,68.367,0,0,1,6.8-15.461s-2.092,7.844-.718,14.731l2.569-.305c1.366-6.4,3.577-12.521,7.15-16.093a75.079,75.079,0,0,1,8.567-7.492c-1.373-6.107-2.9-10.841-2.9-10.841a64.9,64.9,0,0,1,5.912,8.816,15.841,15.841,0,0,1,3.754-1.817s-1.047,1.609-2.439,4.268a47.11,47.11,0,0,1,4.773,14.066c.284,1.891.486,3.968.626,6.143,1.987-.225,4.006-.453,6.018-.678.859-12.934-4.312-32.466-4.312-32.466s13.333,14,14.667,26c.178,1.6.309,3.388.4,5.274l4.145-.453c1.353-4.362,3.217-8.252,5.788-10.822,10-10,15.333-11.334,15.333-11.334a68.723,68.723,0,0,0-8.569,20.807c2.087-.222,4.179-.443,6.287-.663.163-.936.365-1.876.615-2.81a68.657,68.657,0,0,1,7.334-17.334s-2.667,10,0,17.334c.212.584.425,1.229.636,1.918l2.745-.282c-.364-12.457-4.382-27.636-4.382-27.636s13.333,14,14.667,26c.021.194.042.391.062.589l3.766-.375a38.489,38.489,0,0,0,1.839-6.214c2-10.667-4.667-31.334-4.667-31.334s10,12,12,25.333a93.12,93.12,0,0,1,.842,11.229c3.524-.342,7.092-.685,10.665-1.024a68.372,68.372,0,0,1,6.827-15.539s-2.137,8.016-.671,14.958l4.628-.43c1.692-6.973,4.335-13.834,8.454-17.542,2.022-1.822,3.856-3.331,5.5-4.582-1.447-6.842-3.241-12.4-3.241-12.4a65.968,65.968,0,0,1,6.578,10.027c4.687-3.092,7.071-3.557,7.071-3.557a68.165,68.165,0,0,0-4.859,8.113,43.637,43.637,0,0,1,3.209,10.75c.324,2.163.543,4.57.683,7.088,2.845-.249,5.688-.5,8.558-.741,1.876-12.821-2.478-33.621-2.478-33.621s12.582,14.678,13.286,26.732c.105,1.8.139,3.829.121,5.967q11.414-.949,23.068-1.859c.215-.952.473-1.907.778-2.852a68.7,68.7,0,0,1,8.231-16.926s-2.529,7.815-1.47,14.8c1.565-4.163,3.6-7.833,6.236-10.208,6.656-5.993,11.261-8.612,13.742-9.728a138.332,138.332,0,0,0-2.815-14.066s9.358,12.507,10.658,25.927a89.8,89.8,0,0,1,.275,10.424l1.9-.131c1.132-12.86-2.74-31.351-2.74-31.351s12.582,14.679,13.286,26.733c.07,1.21.109,2.517.121,3.892l2.454-.163c1.671-5.379,4.008-10.292,7.268-13.228,10.51-9.463,15.906-10.515,15.906-10.515s-7.89,10.848-10.233,22.907c2.68-.169,5.415-.339,8.107-.5q.161-.568.344-1.134a68.643,68.643,0,0,1,8.23-16.925s-3.186,9.847-.907,17.31c.028.094.057.187.085.284l2.315-.136c.823-12.784-2.827-30.211-2.827-30.211s12.583,14.678,13.286,26.732c.052.906.087,1.869.107,2.874,1.759-.1,3.51-.2,5.274-.292a33.043,33.043,0,0,0,1.381-4.231c2.555-10.547-3.02-31.534-3.02-31.534s9.358,12.506,10.658,25.926a85.981,85.981,0,0,1,.3,9.34c3.06-.16,6.083-.315,9.156-.468q.057-.18.114-.359a68.7,68.7,0,0,1,8.23-16.926s-3.079,9.514-1.02,16.926l1.52-.073c1.687-7.145,4.357-14.249,8.575-18.047a75.14,75.14,0,0,1,8.947-7.033c-1.052-6.17-2.329-10.979-2.329-10.979a64.954,64.954,0,0,1,5.443,9.115,15.829,15.829,0,0,1,3.844-1.619s-1.129,1.552-2.66,4.135a47.1,47.1,0,0,1,4.03,14.3,84.553,84.553,0,0,1,.3,8.975c1.843-.075,3.719-.15,5.566-.222l.022-.1c2.66-12.545-2.146-35.5-2.146-35.5s12.583,14.679,13.286,26.733c.145,2.487.155,5.392.078,8.438l3.118-.111c1.682-5.594,4.065-10.742,7.437-13.778,10.509-9.463,15.906-10.516,15.906-10.516s-8.31,11.427-10.406,23.861c2.131-.068,4.294-.134,6.429-.2a35.468,35.468,0,0,1,1.4-6.441,68.684,68.684,0,0,1,8.23-16.925s-3.186,9.847-.906,17.31c.484,1.586.946,3.593,1.374,5.771l1.691-.045c1.247-12.872-2.7-31.743-2.7-31.743s12.582,14.679,13.286,26.732c.085,1.457.123,3.057.125,4.746l.363-.009a73.738,73.738,0,0,1,6.107-15.175C2025.122,15.724,2020.945,0,2020.945,0a65.18,65.18,0,0,1,9.451,19.472q.425-.348.865-.655c11.585-8.112,17.068-8.5,17.068-8.5s-10.85,11.625-13.822,24.64c-.526,2.306-1,4.558-1.426,6.7,2.677-.05,5.379-.1,8.059-.14.223-1.013.493-2.029.819-3.035a68.646,68.646,0,0,1,8.231-16.925s-3.187,9.846-.907,17.309c.229.754.455,1.6.674,2.52l.786-.011a20.211,20.211,0,0,0,1.491-3.294c4.168-12.127,2.2-35.491,2.2-35.491s10.7,16.1,9.928,28.152c-.2,3.061-.672,6.727-1.275,10.494l3.116-.028a42.055,42.055,0,0,0,2.7-7.322c2.555-10.547-3.019-31.534-3.019-31.534s9.358,12.506,10.658,25.926a99.434,99.434,0,0,1,.2,12.861q4.536-.023,9.08-.031a35.586,35.586,0,0,1,2.173-6.2,68.655,68.655,0,0,1,10.232-15.8s-3.462,7.448-3.261,14.506c2.061-3.941,4.525-7.334,7.433-9.37,7.337-5.137,12.226-7.177,14.826-7.981a138.419,138.419,0,0,0-1.081-14.3s7.765,13.554,7.42,27.032a97.25,97.25,0,0,1-1.285,12.266l1.763.018c3.275-12.544,1.527-33.254,1.527-33.254s10.7,16.1,9.93,28.152c-.1,1.6-.283,3.374-.518,5.238l2.071.03c2.4-5.634,5.49-10.776,9.375-13.5,11.584-8.112,17.068-8.5,17.068-8.5s-9.535,10.215-13.177,22.216c2.733.051,5.441.105,8.172.163q.3-.748.645-1.485a68.671,68.671,0,0,1,10.231-15.8s-4.363,9.385-3.01,17.069c.021.127.044.257.066.39l2.3.054c2.375-12.587.878-30.335.878-30.335s10.7,16.1,9.927,28.151c-.05.782-.118,1.6-.2,2.456,1.848.05,3.706.1,5.554.155a31.428,31.428,0,0,0,1.562-3.423c3.822-10.157.845-31.667.845-31.667s7.764,13.554,7.419,27.032a82.217,82.217,0,0,1-.714,8.331c3.2.1,6.436.205,9.633.313a68.553,68.553,0,0,1,9.771-14.827s-3.644,7.838-3.238,15.054l2.311.083c2.485-6.291,5.8-12.221,10.078-15.215a75.164,75.164,0,0,1,9.739-5.89c-.292-6.252-.975-11.182-.975-11.182a64.91,64.91,0,0,1,4.293,9.711,15.834,15.834,0,0,1,4.012-1.139s-1.31,1.4-3.143,3.781a47.116,47.116,0,0,1,2.257,14.679c-.05,1.946-.216,4.069-.463,6.277,2.037.087,4.025.175,6.058.265,3.092-12.587,1.392-32.726,1.392-32.726s10.7,16.1,9.929,28.152c-.1,1.556-.272,3.268-.5,5.071l4.272.2c2.063-3.95,4.531-7.35,7.443-9.389,11.585-8.111,17.069-8.5,17.069-8.5a69.085,69.085,0,0,0-11.858,18.518q3.172.163,6.334.33.4-1.042.872-2.067a68.683,68.683,0,0,1,10.23-15.8s-4.362,9.385-3.009,17.07c.068.391.133.806.194,1.24l2.965.164c1.638-12.2.373-27.182.373-27.182s10.474,15.763,9.949,27.768l4.294.251a35.425,35.425,0,0,0,2.308-4.792c3.821-10.156.845-31.667.845-31.667s7.763,13.554,7.418,27.032a88.266,88.266,0,0,1-.941,10.006c3.739.229,7.479.462,11.2.7a67.931,67.931,0,0,1,8.727-12.774,39.111,39.111,0,0,0-3.256,13.126q10.227.664,20.338,1.366c3.807-10.168.835-31.64.835-31.64s7.763,13.554,7.418,27.032c-.042,1.617-.163,3.356-.345,5.164,213.069,15.147,381.529,41.772,381.529,41.772v263Zm51.209-270.784q3.285-.471,6.754-.962a34.854,34.854,0,0,0,1.371-4.92c.787-4.2.23-9.952-.734-15.381C1516.6,68.323,1512.587,76.648,1511.552,85.323Zm118.84-15.337c1.349-.157,2.695-.312,4.056-.468q.13-.552.229-1.078c.7-3.748.335-8.733-.437-13.621A51.154,51.154,0,0,0,1630.391,69.986Zm122.551-13.268q-.035.34-.069.68l1.385-.124q.251-.952.418-1.833a31.161,31.161,0,0,0,.262-7.661A42.412,42.412,0,0,0,1752.943,56.718Zm71.516-5.167c2.193-.161,4.4-.322,6.606-.481a36.85,36.85,0,0,0,1.905-5.512c1.006-4.153.751-9.926.073-15.4C1830.424,34.382,1825.849,42.742,1824.458,51.551ZM1943.938,42.7q-.093.9-.177,1.8l3.432-.149a31.971,31.971,0,0,0,1.2-3.75c.9-3.707.792-8.7.276-13.625A50.142,50.142,0,0,0,1943.938,42.7ZM2225.885,43.9l4.045.163q.293-.662.53-1.292c1.343-3.569,1.847-8.541,1.934-13.488A50.722,50.722,0,0,0,2225.885,43.9Zm-120.243-3.506q-.085.374-.168.745c1.954.009,3.917.021,5.872.033a44.011,44.011,0,0,0,3.951-7.538c1.5-4,1.956-9.76,1.949-15.275C2113.91,22.508,2107.767,31.1,2105.643,40.395Z" transform="translate(-1460.342 518.893)" fill="url(#linear-gradient)"/>
      <ellipse id="Ellipse_1" data-name="Ellipse 1" cx="402" cy="101.5" rx="402" ry="101.5" transform="translate(766 543)" opacity="0.63" fill="url(#radial-gradient)"/>
      <g id="Group_20" data-name="Group 20" transform="translate(770.653 292)">
        <g id="Group_14" data-name="Group 14" clip-path="url(#clip-path-2)">
          <path id="Path_9" data-name="Path 9" d="M643.838,40.345s-52.5-31.786-168.284-29.738-157.2,19.506-157.2,19.506l-54.4,102.219-40.535,3.4-133.5,11.2-67.45,5.658L68.117,330.945l738.076,8.2,32.083-186.724L687.863,122.171Z" transform="translate(-11.464 -5.363)" fill="url(#linear-gradient-2)"/>
          <path id="Path_10" data-name="Path 10" d="M710.448,69.95l1.633,92.351-163.459,2.89S593.908,72.011,594.664,72L710.448,69.95" transform="translate(-279.91 -35.689)" fill="url(#linear-gradient-3)"/>
          <path id="Path_11" data-name="Path 11" d="M920.734,69.212l1.633,92.351,170.271-3.011-28.751-84.765Z" transform="translate(-469.764 -35.312)" fill="url(#linear-gradient-4)"/>
          <path id="Path_12" data-name="Path 12" d="M1245.895,539.705c.859,48.716,33.086,87.65,71.977,86.962s69.717-40.737,68.855-89.453-33.086-87.649-71.977-86.962-69.717,40.736-68.855,89.452" transform="translate(-635.654 -229.717)" fill="#1a1818"/>
          <path id="Path_13" data-name="Path 13" d="M1324.337,591.273c.395,22.152,15.045,39.854,32.73,39.542s31.7-18.523,31.309-40.673-15.045-39.854-32.727-39.542-31.7,18.523-31.312,40.673" transform="translate(-675.68 -280.916)" fill="#818386"/>
          <path id="Path_14" data-name="Path 14" d="M175.175,558.638c.861,48.715,33.086,87.649,71.976,86.962s69.718-40.737,68.857-89.452-33.086-87.65-71.976-86.962-69.718,40.737-68.856,89.452" transform="translate(-89.366 -239.377)" fill="url(#radial-gradient-2)"/>
          <path id="Path_15" data-name="Path 15" d="M253.62,610.205c.392,22.152,15.044,39.855,32.727,39.542s31.7-18.523,31.309-40.674-15.044-39.854-32.727-39.542-31.7,18.523-31.309,40.673" transform="translate(-129.394 -290.576)" fill="url(#radial-gradient-3)"/>
          <rect id="Rectangle_10" data-name="Rectangle 10" width="25.524" height="79.34" transform="translate(4.734 140.092) rotate(-1.013)" fill="url(#linear-gradient-5)"/>
        </g>
      </g>
    </g>
  </g>
</svg>
