<svg xmlns="http://www.w3.org/2000/svg" width="99.36" height="68.5" viewBox="0 0 99.36 68.5">
  <g id="Group_16" data-name="Group 16" transform="translate(-1018.64 -452.538)">
    <g id="Rectangle_2" data-name="Rectangle 2" transform="translate(1059 452.538)" fill="#fff" stroke="#c1c1c1" stroke-width="1">
      <rect width="59" height="59" stroke="none"/>
      <rect x="0.5" y="0.5" width="58" height="58" fill="none"/>
    </g>
    <path id="Path_1" data-name="Path 1" d="M1018.667,501.5c9.333-.5,12.5-6.5,25-6.5s13.417,6.5,25,6.5,13.667-5.833,21.333-6.5" transform="translate(0 -19.462)" fill="none" stroke="#c1c1c1" stroke-width="1"/>
    <path id="Path_2" data-name="Path 2" d="M1018.667,501.5c9.333-.5,12.5-6.5,25-6.5s13.417,6.5,25,6.5,13.667-5.833,21.333-6.5" transform="translate(0 -11.462)" fill="none" stroke="#c1c1c1" stroke-width="1"/>
    <path id="Path_3" data-name="Path 3" d="M1018.667,501.5c9.333-.5,12.5-6.5,25-6.5s13.417,6.5,25,6.5,13.667-5.833,21.333-6.5" transform="translate(0 -4.962)" fill="none" stroke="#c1c1c1" stroke-width="1"/>
    <path id="Path_4" data-name="Path 4" d="M1018.667,501.5c9.333-.5,12.5-6.5,25-6.5s13.417,6.5,25,6.5,13.667-5.833,21.333-6.5" transform="translate(0 3.038)" fill="none" stroke="#c1c1c1" stroke-width="1"/>
    <path id="Path_5" data-name="Path 5" d="M1018.667,501.5c9.333-.5,12.5-6.5,25-6.5s13.417,6.5,25,6.5,13.667-5.833,21.333-6.5" transform="translate(0 11.038)" fill="none" stroke="#c1c1c1" stroke-width="1"/>
    <path id="Path_6" data-name="Path 6" d="M1018.667,501.5c9.333-.5,12.5-6.5,25-6.5s13.417,6.5,25,6.5,13.667-5.833,21.333-6.5" transform="translate(0 19.038)" fill="none" stroke="#c1c1c1" stroke-width="1"/>
  </g>
</svg>
